<svg xmlns="http://www.w3.org/2000/svg" viewBox="0 0 64 64">
  <!-- Layer 1: Spine and Back Cover -->
  <path d="M12 10 L16 8 L52 12 L48 56 L12 52 Z" fill="#4A3419" stroke="#000" stroke-width="2"/>
  
  <!-- Layer 2: Page Block (Thick and Dusty) -->
  <path d="M16 12 L50 15 L46 54 L16 51 Z" fill="#D2B48C" stroke="#000" stroke-width="1"/>
  <!-- Page edges lines -->
  <path d="M47 16 L47 54 M48 18 L48 55 M49 20 L49 56" stroke="#8B6914" stroke-width="0.5"/>
  
  <!-- Layer 3: Front Cover -->
  <path d="M14 10 L14 52 L46 55 L50 14 Z" fill="#5D4037" stroke="#000" stroke-width="2"/>
  
  <!-- Layer 4: Spine Details -->
  <path d="M14 10 Q 11 10 11 12 L11 50 Q 11 52 14 52" fill="none" stroke="#2D1B0F" stroke-width="3"/>
  
  <!-- Layer 5: Faded Paper Tag -->
  <path d="M22 20 L42 22 L41 38 L21 36 Z" fill="#E3D5B8" stroke="#8B7D6B" stroke-width="1"/>
  <!-- "Ashmore" text-simulated marks -->
  <path d="M25 25 L28 25 M30 25 L35 25 M37 25 L40 25" stroke="#4A3419" stroke-width="1.5"/>
  <path d="M24 29 L30 29 M32 29 L38 29" stroke="#4A3419" stroke-width="1.5"/>
  <path d="M25 33 L35 33" stroke="#4A3419" stroke-width="1.5"/>
  
  <!-- "Dust" particles -->
  <circle cx="20" cy="15" r="0.5" fill="#FFFFFF" opacity="0.4"/>
  <circle cx="45" cy="45" r="0.5" fill="#FFFFFF" opacity="0.4"/>
  <circle cx="30" cy="50" r="0.5" fill="#FFFFFF" opacity="0.4"/>
</svg>