<svg xmlns="http://www.w3.org/2000/svg" viewBox="0 0 64 64">
  <!-- Layer 1: Key Bow (Handle) - Ornate 1920s style -->
  <path d="M 12 32 Q 10 24 18 18 Q 26 12 34 18 Q 42 24 40 32 Q 38 40 30 46 Q 22 52 14 46 Q 6 40 12 32 Z" fill="none" stroke="#B8860B" stroke-width="3"/>
  <!-- Decorative inner Bow -->
  <path d="M 20 32 Q 18 28 22 24 Q 26 20 30 24 Q 34 28 32 32 Q 30 36 26 40 Q 22 44 18 40 Q 14 36 20 32 Z" fill="#B8860B" opacity="0.4"/>
  
  <!-- Layer 2: Key Shaft - Heavy brass -->
  <rect x="36" y="28" width="22" height="6" rx="2" fill="#B8860B" stroke="#000" stroke-width="1.5"/>
  
  <!-- Layer 3: Key Teeth - Gothic-ish design -->
  <path d="M 50 34 L 50 46 L 54 46 L 54 42 L 58 42 L 58 34 Z" fill="#B8860B" stroke="#000" stroke-width="1.5"/>
  <path d="M 44 34 L 44 40 L 48 40 L 48 34 Z" fill="#B8860B" stroke="#000" stroke-width="1.5"/>
  
  <!-- Highlights (Brass sheen) -->
  <path d="M 38 29 L 55 29" stroke="#DAA520" stroke-width="1" opacity="0.6"/>
  <path d="M 15 22 Q 22 18 31 22" fill="none" stroke="#DAA520" stroke-width="1" opacity="0.6"/>
</svg>