<svg xmlns="http://www.w3.org/2000/svg" viewBox="0 0 64 64">
  <!-- Book Cover -->
  <path d="M 10 4 L 58 4 Q 60 4 60 6 L 60 58 Q 60 60 58 60 L 10 60 Z" fill="#5D2906" stroke="#3D1900" stroke-width="1" />
  
  <!-- Book Spine -->
  <path d="M 10 4 L 16 4 L 16 60 L 10 60 Z" fill="#3D1900" />
  <path d="M 10 12 L 16 12 M 10 52 L 16 52" stroke="#5D2906" stroke-width="1" />

  <!-- Clockwork Gear -->
  <g transform="translate(35, 32)">
    <!-- Gear teeth/outer ring -->
    <path d="M 15 0 L 13.5 4.5 L 18 6.5 L 16 10 L 11 9 L 9 13.5 L 12 18 L 8 20 L 4.5 15 L 0 16.5 L -4.5 15 L -8 20 L -12 18 L -9 13.5 L -11 9 L -16 10 L -18 6.5 L -13.5 4.5 L -15 0 L -13.5 -4.5 L -18 -6.5 L -16 -10 L -11 -9 L -9 -13.5 L -12 -18 L -8 -20 L -4.5 -15 L 0 -16.5 L 4.5 -15 L 8 -20 L 12 -18 L 9 -13.5 L 11 -9 L 16 -10 L 18 -6.5 L 13.5 -4.5 Z" fill="#FF8800" stroke="#AA0000" stroke-width="1" />
    <!-- Inner circle -->
    <circle r="6" fill="#5D2906" stroke="#AA0000" stroke-width="1" />
    <circle r="2" fill="#FF8800" />
  </g>

  <!-- Worn Edges / Scratches -->
  <path d="M 45 10 L 52 15 M 20 50 L 30 55" stroke="#3D1900" stroke-width="0.5" opacity="0.5" />
</svg>
