<svg xmlns="http://www.w3.org/2000/svg" viewBox="0 0 64 64">
  <rect width="64" height="64" fill="#000088"/>
  <polygon points="32,8 56,32 32,56 8,32" fill="#00FF00"/>
  <polygon points="32,12 52,32 32,52 12,32" fill="#000088"/>
  <polygon points="32,16 48,32 32,48 16,32" fill="#00FF00"/>
  <polygon points="32,20 44,32 32,44 20,32" fill="#000088"/>
  <polygon points="32,24 40,32 32,40 24,32" fill="#00FF00"/>
  <polygon points="32,28 36,32 32,36 28,32" fill="#000088"/>
  <line x1="32" y1="8" x2="32" y2="56" stroke="#FFFFFF" stroke-width="2"/>
  <line x1="8" y1="32" x2="56" y2="32" stroke="#FFFFFF" stroke-width="2"/>
  <line x1="32" y1="8" x2="56" y2="32" stroke="#FFFFFF" stroke-width="2"/>
  <line x1="56" y1="32" x2="32" y2="56" stroke="#FFFFFF" stroke-width="2"/>
  <line x1="32" y1="56" x2="8" y2="32" stroke="#FFFFFF" stroke-width="2"/>
  <line x1="8" y1="32" x2="32" y2="8" stroke="#FFFFFF" stroke-width="2"/>
</svg>