<svg xmlns="http://www.w3.org/2000/svg" viewBox="0 0 640 400">
  <rect width="640" height="400" fill="#000088"/>
  <rect x="200" y="100" width="240" height="300" fill="#AA00FF"/>
  <rect x="220" y="120" width="200" height="260" fill="#000000"/>
  <rect x="240" y="140" width="160" height="220" fill="#AA00FF"/>
  <rect x="260" y="160" width="120" height="180" fill="#000000"/>
  <rect x="280" y="180" width="80" height="140" fill="#AA00FF"/>
  <rect x="300" y="200" width="40" height="100" fill="#000000"/>
  <rect x="320" y="220" width="20" height="60" fill="#AA00FF"/>
  <rect x="200" y="100" width="240" height="20" fill="#FF8800"/>
  <rect x="200" y="120" width="20" height="260" fill="#FF8800"/>
  <rect x="420" y="120" width="20" height="260" fill="#FF8800"/>
  <line x1="200" y1="100" x2="440" y2="100" stroke="#FFFFFF" stroke-width="2"/>
  <line x1="200" y1="380" x2="440" y2="380" stroke="#FFFFFF" stroke-width="2"/>
  <line x1="200" y1="100" x2="200" y2="380" stroke="#FFFFFF" stroke-width="2"/>
  <line x1="440" y1="100" x2="440" y2="380" stroke="#FFFFFF" stroke-width="2"/>
  <rect x="220" y="360" width="200" height="20" fill="#FF8800"/>
  <line x1="220" y1="360" x2="420" y2="360" stroke="#FFFFFF" stroke-width="2"/>
  <line x1="220" y1="360" x2="220" y2="380" stroke="#FFFFFF" stroke-width="2"/>
  <line x1="420" y1="360" x2="420" y2="380" stroke="#FFFFFF" stroke-width="2"/>
  <text x="240" y="375" font-family="Arial" font-size="12" fill="#FFFFFF">ALISTAIR CHRONOS</text>
  <text x="240" y="390" font-family="Arial" font-size="12" fill="#FFFFFF">KEEPER OF TIME</text>
  <line x1="200" y1="100" x2="220" y2="120" stroke="#FFFFFF" stroke-width="2"/>
  <line x1="440" y1="100" x2="420" y2="120" stroke="#FFFFFF" stroke-width="2"/>
  <line x1="220" y1="120" x2="220" y2="360" stroke="#FFFFFF" stroke-width="2"/>
  <line x1="420" y1="120" x2="420" y2="360" stroke="#FFFFFF" stroke-width="2"/>
  <line x1="220" y1="360" x2="240" y2="380" stroke="#FFFFFF" stroke-width="2"/>
  <line x1="420" y1="360" x2="400" y2="380" stroke="#FFFFFF" stroke-width="2"/>
  <line x1="240" y1="380" x2="400" y2="380" stroke="#FFFFFF" stroke-width="2"/>
  <line x1="200" y1="100" x2="220" y2="120" stroke="#FFFFFF" stroke-width="2"/>
  <line x1="440" y1="100" x2="420" y2="120" stroke="#FFFFFF" stroke-width="2"/>
  <line x1="220" y1="120" x2="220" y2="360" stroke="#FFFFFF" stroke-width="2"/>
  <line x1="420" y1="120" x2="420" y2="360" stroke="#FFFFFF" stroke-width="2"/>
  <line x1="220" y1="360" x2="240" y2="380" stroke="#FFFFFF" stroke-width="2"/>
  <line x1="420" y1="360" x2="400" y2="380" stroke="#FFFFFF" stroke-width="2"/>
  <line x1="240" y1="380" x2="400" y2="380" stroke="#FFFFFF" stroke-width="2"/>
  <line x1="200" y1="100" x2="220" y2="120" stroke="#FFFFFF" stroke-width="2"/>
  <line x1="440" y1="100" x2="420" y2="120" stroke="#FFFFFF" stroke-width="2"/>
  <line x1="220" y1="120" x2="220" y2="360" stroke="#FFFFFF" stroke-width="2"/>
  <line x1="420" y1="120" x2="420" y2="360" stroke="#FFFFFF" stroke-width="2"/>
  <line x1="220" y1="360" x2="240" y2="380" stroke="#FFFFFF" stroke-width="2"/>
  <line x1="420" y1="360" x2="400" y2="380" stroke="#FFFFFF" stroke-width="2"/>
  <line x1="240" y1="380" x2="400" y2="380" stroke="#FFFFFF" stroke-width="2"/>
</svg>