<svg xmlns="http://www.w3.org/2000/svg" viewBox="0 0 640 400">
  <rect width="640" height="400" fill="#000088"/>
  <rect x="50" y="0" width="540" height="400" fill="#AA00FF"/>
  <rect x="70" y="20" width="500" height="360" fill="#000000"/>
  <rect x="90" y="40" width="460" height="320" fill="#AA00FF"/>
  <rect x="110" y="60" width="420" height="280" fill="#000000"/>
  <rect x="130" y="80" width="380" height="240" fill="#AA00FF"/>
  <rect x="150" y="100" width="340" height="200" fill="#000000"/>
  <rect x="170" y="120" width="300" height="160" fill="#AA00FF"/>
  <rect x="190" y="140" width="260" height="120" fill="#000000"/>
  <rect x="210" y="160" width="220" height="80" fill="#AA00FF"/>
  <rect x="230" y="180" width="180" height="40" fill="#000000"/>
  <rect x="250" y="200" width="140" height="20" fill="#AA00FF"/>
  <rect x="270" y="220" width="100" height="10" fill="#000000"/>
  <line x1="50" y1="0" x2="590" y2="0" stroke="#FFFFFF" stroke-width="2"/>
  <line x1="50" y1="400" x2="590" y2="400" stroke="#FFFFFF" stroke-width="2"/>
  <line x1="50" y1="0" x2="50" y2="400" stroke="#FFFFFF" stroke-width="2"/>
  <line x1="590" y1="0" x2="590" y2="400" stroke="#FFFFFF" stroke-width="2"/>
  <line x1="70" y1="20" x2="570" y2="20" stroke="#FFFFFF" stroke-width="2"/>
  <line x1="70" y1="380" x2="570" y2="380" stroke="#FFFFFF" stroke-width="2"/>
  <line x1="70" y1="20" x2="70" y2="380" stroke="#FFFFFF" stroke-width="2"/>
  <line x1="570" y1="20" x2="570" y2="380" stroke="#FFFFFF" stroke-width="2"/>
  <line x1="90" y1="40" x2="550" y2="40" stroke="#FFFFFF" stroke-width="2"/>
  <line x1="90" y1="360" x2="550" y2="360" stroke="#FFFFFF" stroke-width="2"/>
  <line x1="90" y1="40" x2="90" y2="360" stroke="#FFFFFF" stroke-width="2"/>
  <line x1="550" y1="40" x2="550" y2="360" stroke="#FFFFFF" stroke-width="2"/>
  <line x1="110" y1="60" x2="530" y2="60" stroke="#FFFFFF" stroke-width="2"/>
  <line x1="110" y1="340" x2="530" y2="340" stroke="#FFFFFF" stroke-width="2"/>
  <line x1="110" y1="60" x2="110" y2="340" stroke="#FFFFFF" stroke-width="2"/>
  <line x1="530" y1="60" x2="530" y2="340" stroke="#FFFFFF" stroke-width="2"/>
  <line x1="130" y1="80" x2="510" y2="80" stroke="#FFFFFF" stroke-width="2"/>
  <line x1="130" y1="320" x2="510" y2="320" stroke="#FFFFFF" stroke-width="2"/>
  <line x1="130" y1="80" x2="130" y2="320" stroke="#FFFFFF" stroke-width="2"/>
  <line x1="510" y1="80" x2="510" y2="320" stroke="#FFFFFF" stroke-width="2"/>
  <line x1="150" y1="100" x2="490" y2="100" stroke="#FFFFFF" stroke-width="2"/>
  <line x1="150" y1="300" x2="490" y2="300" stroke="#FFFFFF" stroke-width="2"/>
  <line x1="150" y1="100" x2="150" y2="300" stroke="#FFFFFF" stroke-width="2"/>
  <line x1="490" y1="100" x2="490" y2="300" stroke="#FFFFFF" stroke-width="2"/>
  <line x1="170" y1="120" x2="470" y2="120" stroke="#FFFFFF" stroke-width="2"/>
  <line x1="170" y1="280" x2="470" y2="280" stroke="#FFFFFF" stroke-width="2"/>
  <line x1="170" y1="120" x2="170" y2="280" stroke="#FFFFFF" stroke-width="2"/>
  <line x1="470" y1="120" x2="470" y2="280" stroke="#FFFFFF" stroke-width="2"/>
  <line x1="190" y1="140" x2="450" y2="140" stroke="#FFFFFF" stroke-width="2"/>
  <line x1="190" y1="260" x2="450" y2="260" stroke="#FFFFFF" stroke-width="2"/>
  <line x1="190" y1="140" x2="190" y2="260" stroke="#FFFFFF" stroke-width="2"/>
  <line x1="450" y1="140" x2="450" y2="260" stroke="#FFFFFF" stroke-width="2"/>
  <line x1="210" y1="160" x2="430" y2="160" stroke="#FFFFFF" stroke-width="2"/>
  <line x1="210" y1="240" x2="430" y2="240" stroke="#FFFFFF" stroke-width="2"/>
  <line x1="210" y1="160" x2="210" y2="240" stroke="#FFFFFF" stroke-width="2"/>
  <line x1="430" y1="160" x2="430" y2="240" stroke="#FFFFFF" stroke-width="2"/>
  <line x1="230" y1="180" x2="410" y2="180" stroke="#FFFFFF" stroke-width="2"/>
  <line x1="230" y1="220" x2="410" y2="220" stroke="#FFFFFF" stroke-width="2"/>
  <line x1="230" y1="180" x2="230" y2="220" stroke="#FFFFFF" stroke-width="2"/>
  <line x1="410" y1="180" x2="410" y2="220" stroke="#FFFFFF" stroke-width="2"/>
  <line x1="250" y1="200" x2="390" y2="200" stroke="#FFFFFF" stroke-width="2"/>
  <line x1="250" y1="220" x2="390" y2="220" stroke="#FFFFFF" stroke-width="2"/>
  <line x1="250" y1="200" x2="250" y2="220" stroke="#FFFFFF" stroke-width="2"/>
  <line x1="390" y1="200" x2="390" y2="220" stroke="#FFFFFF" stroke-width="2"/>
  <line x1="270" y1="220" x2="370" y2="220" stroke="#FFFFFF" stroke-width="2"/>
  <line x1="270" y1="230" x2="370" y2="230" stroke="#FFFFFF" stroke-width="2"/>
  <line x1="270" y1="220" x2="270" y2="230" stroke="#FFFFFF" stroke-width="2"/>
  <line x1="370" y1="220" x2="370" y2="230" stroke="#FFFFFF" stroke-width="2"/>
</svg>