<svg xmlns="http://www.w3.org/2000/svg" viewBox="0 0 640 400">
  <defs>
    <pattern id="hatch-dark" width="4" height="4" patternUnits="userSpaceOnUse">
      <line x1="0" y1="0" x2="4" y2="0" stroke="#000000" stroke-width="1"/>
    </pattern>
    <pattern id="checker" width="4" height="4" patternUnits="userSpaceOnUse">
      <rect width="2" height="2" fill="#000000"/>
      <rect x="2" y="2" width="2" height="2" fill="#000000"/>
    </pattern>
    <g id="big-gear">
      <!-- Extraction of /workspace/art_templates/game-icons/big-gear.svg or similar logic -->
      <path d="M256 50.15c-30.86 0-59.83 5.37-86.4 15.22l-14.7-41.25.04-.02c-4.46-12.75 3.32-24.87 14.86-22.38 11.54 2.5 15.54 13.9 11.08 26.65l5.58 15.65c22.65-8.48 47.38-13.1 73.14-13.1s50.49 4.62 73.14 13.1l5.58-15.65c-4.46-12.75-.46-24.15 11.08-26.65 11.54-2.5 19.32 9.63 14.86 22.38l.04.02-14.7 41.25c-26.57-9.85-55.54-15.22-86.4-15.22zm161.4 39.81 35.8-24.47.02.04c10.4-8.4 24.3-3.64 24.23 8.35-.07 11.99-10.15 18.23-20.55 26.63l-13.56 9.27c15.28 17.59 28.23 37.38 38.3 58.74l41.6-13.63.02.04c12.3-5.58 24.7 1.94 22.1 13.43-2.6 11.49-14.1 15.34-26.4 20.92l-15.75 5.16c4.65 23.63 7.22 48.06 7.22 73.14s-2.57 49.51-7.22 73.14l15.75 5.16c12.3 5.58 23.8 9.43 26.4 20.92 2.6 11.49-9.8 19.01-22.1 13.43l-.02.04-41.6-13.63c-10.07 21.36-23.02 41.15-38.3 58.74l13.56 9.27c10.4 8.4 20.48 14.64 20.55 26.63.07 11.99-13.83 16.75-24.23 8.35l-.02.04-35.8-24.47c-17.59 15.28-37.38 28.23-58.74 38.3l13.63 41.6-.04.02c5.58 12.3-1.94 24.7-13.43 22.1-11.49-2.6-15.34-14.1-20.92-26.4l-5.16-15.75c-23.63 4.65-48.06 7.22-73.14 7.22s-49.51-2.57-73.14-7.22l-5.16 15.75c-5.58 12.3-9.43 23.8-20.92 26.4-11.49 2.6-19.01-9.8-13.43-22.1l-.04-.02 13.63-41.6c-21.36-10.07-41.15-23.02-58.74-38.3L77.06 439c-10.4 8.4-24.3 3.64-24.23-8.35.07-11.99 10.15-18.23 20.55-26.63l13.56-9.27c-15.28-17.59-28.23-37.38-38.3-58.74l-41.6 13.63-.02-.04C4.17 355.23-8.23 347.71-5.63 336.22c2.6-11.49 14.1-15.34 26.4-20.92l15.75-5.16C31.87 286.51 29.3 262.08 29.3 237s2.57-49.51 7.22-73.14l-15.75-5.16C8.47 153.12-3.03 149.27-5.63 137.78c-2.6-11.49 9.8-19.01 22.1-13.43l.02-.04 41.6 13.63c10.07-21.36 23.02-41.15 38.3-58.74L82.83 69.93c-10.4-8.4-20.48-14.64-20.55-26.63-.07-11.99 13.83-16.75 24.23-8.35l.02-.04L122.33 59.38c17.59-15.28 37.38-28.23 58.74-38.3L167.44-20.52l.04-.02c-5.58-12.3 1.94-24.7 13.43-22.1s15.34 14.1 20.92 26.4l5.16 15.75c23.63-4.65 48.06-7.22 73.14-7.22s49.51 2.57 73.14 7.22l5.16-15.75c5.58-12.3 9.43-23.8 20.92-26.4 11.49-2.6 19.01 9.8 13.43 22.1l.04.02-13.63 41.6c21.36 10.07 41.15 23.02 58.74 38.3zM256 166.45c-43.34 0-78.43 35.09-78.43 78.43s35.09 78.43 78.43 78.43 78.43-35.09 78.43-78.43-35.09-78.43-78.43-78.43z" fill="currentColor"/>
    </g>
  </defs>
  <!-- Background Vertical Shaft -->
  <rect width="640" height="400" fill="#000000"/>
  <rect x="150" y="0" width="340" height="400" fill="#000088"/>
  <rect x="150" y="0" width="340" height="400" fill="url(#hatch-dark)" opacity="0.3"/>

  <!-- Massive Gears - interlock logic -->
  <g transform="translate(160, 50) rotate(15) scale(0.4)" fill="#AA00FF">
     <use href="#big-gear"/>
  </g>
  <g transform="translate(350, 180) rotate(-15) scale(0.6)" fill="#AA00FF">
     <use href="#big-gear"/>
  </g>
  <g transform="translate(180, 310) rotate(45) scale(0.4)" fill="#AA00FF">
     <use href="#big-gear"/>
  </g>

  <!-- Walkway & Iron Grating -->
  <rect x="0" y="240" width="640" height="20" fill="#555555"/>
  <rect x="0" y="240" width="640" height="20" fill="url(#checker)"/>
  <rect x="0" y="240" width="640" height="5" fill="#000000"/>
  <rect x="0" y="255" width="640" height="5" fill="#000000"/>

  <!-- Railing -->
  <line x1="0" y1="200" x2="640" y2="200" stroke="#000000" stroke-width="3"/>
  <line x1="50" y1="200" x2="50" y2="240" stroke="#000000" stroke-width="2"/>
  <line x1="150" y1="200" x2="150" y2="240" stroke="#000000" stroke-width="2"/>
  <line x1="250" y1="200" x2="250" y2="240" stroke="#000000" stroke-width="2"/>
  <line x1="350" y1="200" x2="350" y2="240" stroke="#000000" stroke-width="2"/>
  <line x1="450" y1="200" x2="450" y2="240" stroke="#000000" stroke-width="2"/>
  <line x1="550" y1="200" x2="550" y2="240" stroke="#000000" stroke-width="2"/>

  <!-- Control Panel on Left -->
  <rect x="10" y="210" width="100" height="70" fill="#FF8800" stroke="#000000" stroke-width="3"/>
  <rect x="25" y="235" width="20" height="30" fill="#000000"/> <!-- Slot -->
  <rect x="60" y="225" width="15" height="15" fill="#33FF33" rx="2"/> <!-- Dials -->
  <rect x="60" y="250" width="15" height="15" fill="#FF0000" rx="2"/>

  <!-- Lighting & Atmosphere (Cobalt pulses) -->
  <rect width="640" height="100" fill="#000088" opacity="0.1"/>
  <ellipse cx="320" cy="0" rx="400" ry="100" fill="#0000FF" opacity="0.1"/>

  <!-- Scanlines effect -->
  <rect width="640" height="400" fill="none" stroke="#000000" stroke-width="1" pointer-events="none"/>
</svg>