<svg xmlns="http://www.w3.org/2000/svg" viewBox="0 0 640 400">
  <rect width="640" height="400" fill="#000088"/>
  <rect x="50" y="50" width="200" height="300" fill="#AA00FF"/>
  <rect x="390" y="50" width="200" height="300" fill="#AA00FF"/>
  <rect x="70" y="70" width="160" height="260" fill="#000000"/>
  <rect x="410" y="70" width="160" height="260" fill="#000000"/>
  <rect x="90" y="90" width="120" height="220" fill="#AA00FF"/>
  <rect x="430" y="90" width="120" height="220" fill="#AA00FF"/>
  <rect x="110" y="110" width="80" height="180" fill="#000000"/>
  <rect x="450" y="110" width="80" height="180" fill="#000000"/>
  <rect x="130" y="130" width="40" height="140" fill="#AA00FF"/>
  <rect x="470" y="130" width="40" height="140" fill="#AA00FF"/>
  <rect x="150" y="150" width="20" height="100" fill="#000000"/>
  <rect x="490" y="150" width="20" height="100" fill="#000000"/>
  <rect x="170" y="170" width="10" height="60" fill="#AA00FF"/>
  <rect x="510" y="170" width="10" height="60" fill="#AA00FF"/>
  <line x1="50" y1="50" x2="250" y2="50" stroke="#FFFFFF" stroke-width="2"/>
  <line x1="50" y1="350" x2="250" y2="350" stroke="#FFFFFF" stroke-width="2"/>
  <line x1="50" y1="50" x2="50" y2="350" stroke="#FFFFFF" stroke-width="2"/>
  <line x1="250" y1="50" x2="250" y2="350" stroke="#FFFFFF" stroke-width="2"/>
  <line x1="390" y1="50" x2="590" y2="50" stroke="#FFFFFF" stroke-width="2"/>
  <line x1="390" y1="350" x2="590" y2="350" stroke="#FFFFFF" stroke-width="2"/>
  <line x1="390" y1="50" x2="390" y2="350" stroke="#FFFFFF" stroke-width="2"/>
  <line x1="590" y1="50" x2="590" y2="350" stroke="#FFFFFF" stroke-width="2"/>
  <line x1="130" y1="130" x2="170" y2="170" stroke="#FFFFFF" stroke-width="2"/>
  <line x1="470" y1="130" x2="510" y2="170" stroke="#FFFFFF" stroke-width="2"/>
  <line x1="170" y1="170" x2="170" y2="230" stroke="#FFFFFF" stroke-width="2"/>
  <line x1="510" y1="170" x2="510" y2="230" stroke="#FFFFFF" stroke-width="2"/>
  <line x1="170" y1="230" x2="130" y2="270" stroke="#FFFFFF" stroke-width="2"/>
  <line x1="510" y1="230" x2="470" y2="270" stroke="#FFFFFF" stroke-width="2"/>
  <line x1="130" y1="270" x2="130" y2="310" stroke="#FFFFFF" stroke-width="2"/>
  <line x1="470" y1="270" x2="470" y2="310" stroke="#FFFFFF" stroke-width="2"/>
  <line x1="130" y1="310" x2="170" y2="350" stroke="#FFFFFF" stroke-width="2"/>
  <line x1="470" y1="310" x2="510" y2="350" stroke="#FFFFFF" stroke-width="2"/>
  <line x1="170" y1="350" x2="170" y2="390" stroke="#FFFFFF" stroke-width="2"/>
  <line x1="510" y1="350" x2="510" y2="390" stroke="#FFFFFF" stroke-width="2"/>
  <line x1="170" y1="390" x2="130" y2="430" stroke="#FFFFFF" stroke-width="2"/>
  <line x1="510" y1="390" x2="470" y2="430" stroke="#FFFFFF" stroke-width="2"/>
</svg>