<svg width="640" height="400" viewBox="0 0 640 400" xmlns="http://www.w3.org/2000/svg">
  <!-- Background: Dark control room -->
  <rect width="640" height="400" fill="#1a1a18"/>
  
  <!-- Floor -->
  <rect x="0" y="340" width="640" height="60" fill="#2a2a25"/>
  <g stroke="#333330" stroke-width="1">
    <line x1="0" y1="360" x2="640" y2="360"/>
    <line x1="0" y1="380" x2="640" y2="380"/>
  </g>
  
  <!-- Mixing board (altar-like) -->
  <rect x="150" y="200" width="340" height="140" fill="#2a2a25" stroke="#555550" stroke-width="4"/>
  <!-- Top surface -->
  <rect x="155" y="205" width="330" height="20" fill="#3a3a35" stroke="#444440" stroke-width="1"/>
  
  <!-- Scorch marks on mixing board -->
  <path d="M200,210 L220,250 L180,260 Z" fill="#000000" opacity="0.7"/>
  <path d="M350,210 L380,260 L340,270 Z" fill="#000000" opacity="0.6"/>
  <path d="M450,210 L470,240 L430,250 Z" fill="#000000" opacity="0.65"/>
  
  <!-- Faders (frozen mid-burn) -->
  <g stroke="#555550" stroke-width="3">
    <line x1="200" y1="230" x2="200" y2="320"/>
    <line x1="250" y1="240" x2="250" y2="310"/>
    <line x1="300" y1="225" x2="300" y2="315"/>
    <line x1="350" y1="235" x2="350" y2="305"/>
    <line x1="400" y1="220" x2="400" y2="325"/>
    <line x1="450" y1="245" x2="450" y2="300"/>
  </g>
  <!-- Fader knobs -->
  <circle cx="200" cy="275" r="8" fill="#ff8800" stroke="#cc6600" stroke-width="2"/>
  <circle cx="250" cy="275" r="8" fill="#aa00ff" stroke="#7700aa" stroke-width="2"/>
  <circle cx="300" cy="270" r="8" fill="#ff8800" stroke="#cc6600" stroke-width="2"/>
  <circle cx="350" cy="270" r="8" fill="#aa00ff" stroke="#7700aa" stroke-width="2"/>
  <circle cx="400" cy="272" r="8" fill="#ff8800" stroke="#cc6600" stroke-width="2"/>
  <circle cx="450" cy="272" r="8" fill="#aa00ff" stroke="#7700aa" stroke-width="2"/>
  
  <!-- Reel-to-reel machines -->
  <rect x="160" y="260" width="80" height="60" fill="#2a2a25" stroke="#555550" stroke-width="2"/>
  <circle cx="200" cy="280" r="20" fill="#1a1a18" stroke="#ff8800" stroke-width="2"/>
  <circle cx="200" cy="280" r="15" fill="none" stroke="#ff8800" stroke-width="1"/>
  
  <rect x="400" y="260" width="80" height="60" fill="#2a2a25" stroke="#555550" stroke-width="2"/>
  <circle cx="440" cy="280" r="20" fill="#1a1a18" stroke="#aa00ff" stroke-width="2"/>
  <circle cx="440" cy="280" r="15" fill="none" stroke="#aa00ff" stroke-width="1"/>
  <!-- Stretched tape -->
  <line x1="440" y1="280" x2="440" y2="200" stroke="#333330" stroke-width="3"/>
  
  <!-- Marcus Webb's dust outline on floor -->
  <path d="M250,380 Q260,375 270,378 L280,375 Q290,370 300,375 L310,370 Q320,365 330,370 L340,365 Q350,360 360,365 L350,375 Q340,380 330,378 L320,380 Q310,382 300,380 L290,382 Q280,380 270,382 Z" fill="#808080" opacity="0.5" stroke="#555550" stroke-width="1"/>
  <!-- Head tilt -->
  <circle cx="340" cy="360" r="15" fill="#808080" opacity="0.5" stroke="#555550"/>
  
  <!-- Glass window to sound booth -->
  <rect x="250" y="50" width="140" height="100" fill="#4a4a45" stroke="#666660" stroke-width="3"/>
  <!-- Reflection lines on glass -->
  <line x1="260" y1="60" x2="380" y2="140" stroke="#666660" stroke-width="1" opacity="0.5"/>
  <line x1="260" y1="80" x2="380" y2="120" stroke="#666660" stroke-width="1" opacity="0.3"/>
  
  <!-- Studio key hanging from hook -->
  <rect x="420" y="120" width="30" height="20" fill="#d4af37" stroke="#b8860b" stroke-width="2"/>
  <circle cx="425" cy="130" r="5" fill="#b8860b"/>
  <line x1="450" y1="125" x2="470" y2="125" stroke="#d4af37" stroke-width="3"/>
  <line x1="470" y1="120" x2="470" y2="130" stroke="#d4af37" stroke-width="3"/>
  
  <!-- Sound booth door -->
  <rect x="500" y="200" width="60" height="140" fill="#2a2a25" stroke="#555550" stroke-width="3"/>
  <circle cx="510" cy="270" r="8" fill="#4a4a45" stroke="#666660" stroke-width="2"/>
  
  <!-- Ambient glow from equipment -->
  <circle cx="320" cy="250" r="60" fill="#ff8800" opacity="0.05"/>
  <circle cx="320" cy="250" r="40" fill="#aa00ff" opacity="0.03"/>
</svg>