<svg width="640" height="400" viewBox="0 0 640 400" xmlns="http://www.w3.org/2000/svg">
  <!-- Background: Dark soundproofed room -->
  <rect width="640" height="400" fill="#0a0a08"/>
  
  <!-- Diamond-patterned acoustic foam on all walls -->
  <defs>
    <pattern id="diamond-foam" patternUnits="userSpaceOnUse" width="40" height="40" patternTransform="rotate(45)">
      <rect width="20" height="20" fill="#1a1a18"/>
      <rect width="20" height="20" fill="#2a2a25" x="20" y="20"/>
    </pattern>
  </defs>
  
  <!-- Left wall foam -->
  <rect x="0" y="0" width="100" height="400" fill="url(#diamond-foam)"/>
  <!-- Right wall foam -->
  <rect x="540" y="0" width="100" height="400" fill="url(#diamond-foam)"/>
  <!-- Back wall foam -->
  <rect x="100" y="0" width="440" height="150" fill="url(#diamond-foam)"/>
  <!-- Floor foam -->
  <rect x="100" y="250" width="440" height="150" fill="url(#diamond-foam)"/>
  
  <!-- Darker disturbed foam on far wall -->
  <rect x="300" y="50" width="100" height="80" fill="#0a0a08" opacity="0.7"/>
  
  <!-- Numbers scratched into foam: 7-3-1-9 -->
  <text x="320" y="100" font-family="monospace" font-size="24" fill="#333330" stroke="#1a1a18" stroke-width="1">7-3-1-9</text>
  
  <!-- Microphone stand (skeletal) -->
  <line x1="320" y1="200" x2="320" y2="350" stroke="#4a4a45" stroke-width="4"/>
  <!-- Stand base -->
  <circle cx="320" cy="350" r="15" fill="#3a3a35" stroke="#555550" stroke-width="2"/>
  <!-- Arm reaching up -->
  <line x1="320" y1="200" x2="340" y2="180" stroke="#4a4a45" stroke-width="3"/>
  <circle cx="340" cy="180" r="5" fill="#4a4a45" stroke="#555550" stroke-width="1"/>
  
  <!-- Scroll of yellowed paper -->
  <rect x="200" y="300" width="60" height="40" fill="#d4af37" stroke="#b8860b" stroke-width="2" opacity="0.8"/>
  <!-- Faint pencil lines on scroll -->
  <line x1="210" y1="310" x2="250" y2="310" stroke="#8b6914" stroke-width="1" opacity="0.5"/>
  <line x1="210" y1="320" x2="240" y2="320" stroke="#8b6914" stroke-width="1" opacity="0.5"/>
  <line x1="210" y1="330" x2="230" y2="330" stroke="#8b6914" stroke-width="1" opacity="0.5"/>
  
  <!-- Sound absorption effect: subtle dark auras -->
  <circle cx="320" cy="250" r="80" fill="#000000" opacity="0.2"/>
  <circle cx="320" cy="250" r="60" fill="#000000" opacity="0.1"/>
  
  <!-- Door seal (pneumatic) -->
  <rect x="0" y="150" width="100" height="100" fill="#2a2a25" stroke="#444440" stroke-width="3"/>
  <line x1="50" y1="150" x2="50" y2="250" stroke="#555550" stroke-width="2"/>
  
  <!-- Additional foam texture details -->
  <g fill="#1a1a18" opacity="0.3">
    <rect x="120" y="160" width="30" height="30"/>
    <rect x="200" y="170" width="30" height="30"/>
    <rect x="380" y="160" width="30" height="30"/>
    <rect x="460" y="170" width="30" height="30"/>
  </g>
</svg>