<svg width="640" height="400" viewBox="0 0 640 400" xmlns="http://www.w3.org/2000/svg">
  <!-- Background: Inside the tower, fog-light -->
  <rect width="640" height="400" fill="#1a1a18"/>
  
  <!-- Fog-light from outside -->
  <rect x="0" y="0" width="640" height="100" fill="#2a2a25" opacity="0.4"/>
  <rect x="0" y="50" width="640" height="80" fill="#3a3a35" opacity="0.2"/>
  
  <!-- Tower interior walls -->
  <rect x="100" y="0" width="20" height="400" fill="#2a2a25"/>
  <rect x="520" y="0" width="20" height="400" fill="#2a2a25"/>
  
  <!-- Floor -->
  <rect x="0" y="350" width="640" height="50" fill="#1a1a18"/>
  <g stroke="#333330" stroke-width="1">
    <line x1="0" y1="370" x2="640" y2="370"/>
  </g>
  
  <!-- Skeletal frame of tower -->
  <g id="skeletal-frame">
    <!-- Vertical beams -->
    <line x1="150" y1="0" x2="150" y2="400" stroke="#4a4a45" stroke-width="5"/>
    <line x1="490" y1="0" x2="490" y2="400" stroke="#4a4a45" stroke-width="5"/>
    <line x1="200" y1="0" x2="200" y2="400" stroke="#4a4a45" stroke-width="3"/>
    <line x1="440" y1="0" x2="440" y2="400" stroke="#4a4a45" stroke-width="3"/>
    <!-- Horizontal crossbeams -->
    <line x1="150" y1="100" x2="490" y2="100" stroke="#4a4a45" stroke-width="2"/>
    <line x1="150" y1="200" x2="490" y2="200" stroke="#4a4a45" stroke-width="2"/>
    <line x1="150" y1="300" x2="490" y2="300" stroke="#4a4a45" stroke-width="2"/>
    <!-- Diagonal braces -->
    <line x1="150" y1="100" x2="200" y2="200" stroke="#4a4a45" stroke-width="1"/>
    <line x1="490" y1="100" x2="440" y2="200" stroke="#4a4a45" stroke-width="1"/>
    <line x1="200" y1="200" x2="150" y2="300" stroke="#4a4a45" stroke-width="1"/>
    <line x1="440" y1="200" x2="490" y2="300" stroke="#4a4a45" stroke-width="1"/>
  </g>
  
  <!-- Massive transmission coil -->
  <rect x="250" y="50" width="140" height="300" fill="#2a2a25" stroke="#555550" stroke-width="4"/>
  <!-- Copper windings (gleaming dully) -->
  <g stroke="#b87333" stroke-width="4" opacity="0.8">
    <line x1="260" y1="70" x2="380" y2="70"/>
    <line x1="260" y1="90" x2="380" y2="90"/>
    <line x1="260" y1="110" x2="380" y2="110"/>
    <line x1="260" y1="130" x2="380" y2="130"/>
    <line x1="260" y1="150" x2="380" y2="150"/>
    <line x1="260" y1="170" x2="380" y2="170"/>
    <line x1="260" y1="190" x2="380" y2="190"/>
    <line x1="260" y1="210" x2="380" y2="210"/>
    <line x1="260" y1="230" x2="380" y2="230"/>
    <line x1="260" y1="250" x2="380" y2="250"/>
    <line x1="260" y1="270" x2="380" y2="270"/>
    <line x1="260" y1="290" x2="380" y2="290"/>
    <line x1="260" y1="310" x2="380" y2="310"/>
    <line x1="260" y1="330" x2="380" y2="330"/>
  </g>
  
  <!-- Service panel (fully open) -->
  <rect x="280" y="150" width="80" height="100" fill="#3a3a35" stroke="#555550" stroke-width="3"/>
  <line x1="280" y1="175" x2="270" y2="170" stroke="#555550" stroke-width="2"/>
  <line x1="280" y1="200" x2="270" y2="205" stroke="#555550" stroke-width="2"/>
  <line x1="280" y1="225" x2="270" y2="220" stroke="#555550" stroke-width="2"/>
  <line x1="360" y1="175" x2="370" y2="170" stroke="#555550" stroke-width="2"/>
  <line x1="360" y1="200" x2="370" y2="205" stroke="#555550" stroke-width="2"/>
  <line x1="360" y1="225" x2="370" y2="220" stroke="#555550" stroke-width="2"/>
  
  <!-- Crystalline socket with antenna crystal installed -->
  <circle cx="320" cy="200" r="15" fill="#0a0a08" stroke="#333330" stroke-width="2"/>
  <!-- Antenna crystal glowing -->
  <polygon points="320,180 330,195 320,220 310,195" fill="#e0e0e0" stroke="#a0a0a0" stroke-width="2"/>
  <circle cx="320" cy="195" r="8" fill="#ffffff" opacity="0.9"/>
  <!-- Crystal glow -->
  <circle cx="320" cy="195" r="20" fill="#ffffff" opacity="0.3"/>
  <circle cx="320" cy="195" r="30" fill="#ff8800" opacity="0.1"/>
  
  <!-- Vibration lines around crystal -->
  <g stroke="#ff8800" stroke-width="1" opacity="0.5">
    <circle cx="320" cy="195" r="25"/>
    <circle cx="320" cy="195" r="35"/>
    <circle cx="320" cy="195" r="45"/>
  </g>
  
  <!-- Fog particles inside tower -->
  <circle cx="200" cy="100" r="3" fill="rgba(200,200,190,0.4)"/>
  <circle cx="400" cy="80" r="2" fill="rgba(200,200,190,0.3)"/>
  <circle cx="250" cy="300" r="3" fill="rgba(200,200,190,0.5)"/>
  <circle cx="450" cy="250" r="2" fill="rgba(200,200,190,0.4)"/>
  <circle cx="300" cy="350" r="2" fill="rgba(200,200,190,0.3)"/>
  
  <!-- Resonant frequency vibration effect -->
  <path d="M250,200 Q260,190 270,200 T290,200" stroke="#ff8800" stroke-width="1" fill="none" opacity="0.3"/>
  <path d="M350,200 Q360,190 370,200 T390,200" stroke="#ff8800" stroke-width="1" fill="none" opacity="0.3"/>
  <path d="M280,150 Q290,140 300,150 T320,150" stroke="#aa00ff" stroke-width="1" fill="none" opacity="0.2"/>
  <path d="M320,250 Q330,240 340,250 T360,250" stroke="#aa00ff" stroke-width="1" fill="none" opacity="0.2"/>
</svg>