<svg width="640" height="400" viewBox="0 0 640 400" xmlns="http://www.w3.org/2000/svg">
  <!-- Background: Dark gray-green for fog and decay -->
  <rect width="640" height="400" fill="#2a2a25"/>
  
  <!-- Fog effect: Semi-transparent white/gray layers -->
  <rect width="640" height="100" y="0" fill="rgba(120,120,110,0.3)"/>
  <rect width="640" height="80" y="20" fill="rgba(100,100,90,0.2)"/>
  
  <!-- Art Deco floor tiles: Geometric pattern -->
  <rect x="0" y="300" width="640" height="100" fill="#1a1a18"/>
  <!-- Tile pattern -->
  <g stroke="#333330" stroke-width="2">
    <!-- Vertical lines -->
    <line x1="80" y1="300" x2="80" y2="400"/>
    <line x1="160" y1="300" x2="160" y2="400"/>
    <line x1="240" y1="300" x2="240" y2="400"/>
    <line x1="320" y1="300" x2="320" y2="400"/>
    <line x1="400" y1="300" x2="400" y2="400"/>
    <line x1="480" y1="300" x2="480" y2="400"/>
    <line x1="560" y1="300" x2="560" y2="400"/>
    <!-- Horizontal lines -->
    <line x1="0" y1="340" x2="640" y2="340"/>
    <line x1="0" y1="380" x2="640" y2="380"/>
  </g>
  
  <!-- Reception desk: Rectangular Art Deco piece -->
  <rect x="270" y="220" width="100" height="60" fill="#3a3a35" stroke="#555550" stroke-width="3"/>
  <rect x="275" y="225" width="90" height="50" fill="#2a2a25" stroke="#444440" stroke-width="2"/>
  <!-- Desk details: Ledger -->
  <rect x="280" y="240" width="80" height="30" fill="#1a1a18" stroke="#333330" stroke-width="1"/>
  
  <!-- Brass relay on velvet pad -->
  <rect x="320" y="200" width="40" height="30" fill="#d4af37" stroke="#b8860b" stroke-width="2"/> <!-- Brass color -->
  <rect x="315" y="195" width="50" height="40" fill="#654321" stroke="#8b6914" stroke-width="1"/> <!-- Velvet pad -->
  
  <!-- Transmitter room door -->
  <rect x="500" y="250" width="80" height="120" fill="#2a2a25" stroke="#555550" stroke-width="3"/>
  <!-- Stenciled letters TRANSMITTER ROOM (simplified as rectangles) -->
  <rect x="510" y="280" width="60" height="8" fill="#cccccc"/>
  <rect x="510" y="300" width="60" height="8" fill="#cccccc"/>
  <rect x="510" y="320" width="60" height="8" fill="#cccccc"/>
  <rect x="510" y="340" width="60" height="8" fill="#cccccc"/>
  <!-- Padlock -->
  <rect x="530" y="260" width="20" height="25" fill="#4a4a45" stroke="#666660" stroke-width="2"/>
  <circle cx="540" cy="285" r="8" fill="#4a4a45" stroke="#666660" stroke-width="2"/>
  
  <!-- Peeling wallpaper effect on left wall -->
  <path d="M0,100 L100,100 L100,200 L0,200 Z" fill="#8b4513" opacity="0.7"/>
  <path d="M0,100 L20,80 L20,180 L0,180 Z" fill="#8b0000" opacity="0.6"/>
  <path d="M80,100 L100,80 L100,180 L80,180 Z" fill="#8b0000" opacity="0.6"/>
  
  <!-- Fog particles: Small circles -->
  <circle cx="100" cy="50" r="3" fill="rgba(200,200,190,0.5)"/>
  <circle cx="200" cy="80" r="2" fill="rgba(200,200,190,0.4)"/>
  <circle cx="350" cy="40" r="4" fill="rgba(200,200,190,0.6)"/>
  <circle cx="500" cy="60" r="3" fill="rgba(200,200,190,0.5)"/>
  <circle cx="150" cy="120" r="2" fill="rgba(200,200,190,0.3)"/>
  <circle cx="400" cy="100" r="3" fill="rgba(200,200,190,0.4)"/>
</svg>