<svg width="64" height="64" viewBox="0 0 64 64" xmlns="http://www.w3.org/2000/svg">
  <!-- Journal cover -->
  <rect x="18" y="20" width="28" height="24" fill="#8B0000" stroke="#000000" stroke-width="2"/>
  <!-- Leather texture -->
  <rect x="20" y="22" width="2" height="2" fill="#654321"/>
  <rect x="24" y="22" width="2" height="2" fill="#654321"/>
  <rect x="28" y="22" width="2" height="2" fill="#654321"/>
  <rect x="32" y="22" width="2" height="2" fill="#654321"/>
  <rect x="36" y="22" width="2" height="2" fill="#654321"/>
  <rect x="20" y="26" width="2" height="2" fill="#654321"/>
  <rect x="24" y="26" width="2" height="2" fill="#654321"/>
  <rect x="28" y="26" width="2" height="2" fill="#654321"/>
  <rect x="32" y="26" width="2" height="2" fill="#654321"/>
  <rect x="36" y="26" width="2" height="2" fill="#654321"/>
  <rect x="20" y="30" width="2" height="2" fill="#654321"/>
  <rect x="24" y="30" width="2" height="2" fill="#654321"/>
  <rect x="28" y="30" width="2" height="2" fill="#654321"/>
  <rect x="32" y="30" width="2" height="2" fill="#654321"/>
  <rect x="36" y="30" width="2" height="2" fill="#654321"/>
  <rect x="20" y="34" width="2" height="2" fill="#654321"/>
  <rect x="24" y="34" width="2" height="2" fill="#654321"/>
  <rect x="28" y="34" width="2" height="2" fill="#654321"/>
  <rect x="32" y="34" width="2" height="2" fill="#654321"/>
  <rect x="36" y="34" width="2" height="2" fill="#654321"/>
  <!-- Spine -->
  <rect x="18" y="20" width="4" height="24" fill="#654321"/>
  <!-- Page edges -->
  <rect x="22" y="24" width="20" height="16" fill="#FFFFFF"/>
  <!-- Writing/lines -->
  <line x1="24" y1="28" x2="40" y2="28" stroke="#000000" stroke-width="1"/>
  <line x1="24" y1="32" x2="40" y2="32" stroke="#000000" stroke-width="1"/>
  <line x1="24" y1="36" x2="40" y2="36" stroke="#000000" stroke-width="1"/>
  <!-- Frequency notes -->
  <rect x="25" y="29" width="3" height="3" fill="#000000"/> <!-- 7 -->
  <rect x="30" y="29" width="1" height="3" fill="#000000"/> <!-- . -->
  <rect x="32" y="29" width="3" height="3" fill="#000000"/> <!-- 8 -->
  <rect x="36" y="29" width="1" height="3" fill="#000000"/> <!-- . -->
  <rect x="38" y="29" width="3" height="3" fill="#000000"/> <!-- 3 -->
</svg>