<svg width="64" height="64" viewBox="0 0 64 64" xmlns="http://www.w3.org/2000/svg">
  <!-- Keycard -->
  <rect x="22" y="18" width="20" height="12" fill="#FF8800" stroke="#000000" stroke-width="2"/>
  <!-- Chip area with frost -->
  <rect x="24" y="20" width="16" height="8" fill="#FFFF00" stroke="#000000" stroke-width="1"/>
  <rect x="25" y="21" width="2" height="2" fill="#000000"/>
  <rect x="29" y="21" width="2" height="2" fill="#000000"/>
  <rect x="25" y="24" width="2" height="2" fill="#000000"/>
  <rect x="29" y="24" width="2" height="2" fill="#000000"/>
  <!-- Frost damage -->
  <rect x="22" y="18" width="3" height="12" fill="#E0F8FF" opacity="0.7"/>
  <rect x="39" y="18" width="3" height="12" fill="#E0F8FF" opacity="0.7"/>
  <!-- Text -->
  <rect x="23" y="23" width="2" height="2" fill="#000000"/> <!-- M -->
  <rect x="27" y="23" width="2" height="2" fill="#000000"/> <!-- A -->
  <rect x="31" y="23" width="2" height="2" fill="#000000"/> <!-- I -->
  <rect x="35" y="23" width="2" height="2" fill="#000000"/> <!-- N -->
  <rect x="23" y="26" width="2" height="2" fill="#000000"/> <!-- T -->
  <rect x="27" y="26" width="2" height="2" fill="#000000"/> <!-- - -->
  <rect x="29" y="26" width="2" height="2" fill="#000000"/> <!-- 0 -->
  <rect x="33" y="26" width="2" height="2" fill="#000000"/> <!-- 4 -->
</svg>