<svg width="64" height="64" viewBox="0 0 64 64" xmlns="http://www.w3.org/2000/svg">
  <!-- Background -->
  <rect width="64" height="64" fill="#001100"/>
  
  <!-- Dried seed pods -->
  <!-- Cluster of pods -->
  <ellipse cx="20" cy="32" rx="6" ry="10" fill="#332200" stroke="#000000" stroke-width="1"/>
  <ellipse cx="32" cy="28" rx="6" ry="10" fill="#332200" stroke="#000000" stroke-width="1"/>
  <ellipse cx="44" cy="32" rx="6" ry="10" fill="#332200" stroke="#000000" stroke-width="1"/>
  <ellipse cx="28" cy="20" rx="6" ry="10" fill="#332200" stroke="#000000" stroke-width="1"/>
  <ellipse cx="36" cy="20" rx="6" ry="10" fill="#332200" stroke="#000000" stroke-width="1"/>
  
  <!-- Pod texture (brittle, papery) -->
  <line x1="20" y1="26" x2="20" y2="38" stroke="#443300" stroke-width="1"/>
  <line x1="32" y1="22" x2="32" y2="34" stroke="#443300" stroke-width="1"/>
  <line x1="44" y1="26" x2="44" y2="38" stroke="#443300" stroke-width="1"/>
  <line x1="28" y1="16" x2="28" y2="24" stroke="#443300" stroke-width="1"/>
  <line x1="36" y1="16" x2="36" y2="24" stroke="#443300" stroke-width="1"/>
  
  <!-- Seeds visible inside (rattling) -->
  <circle cx="18" cy="30" r="2" fill="#221100"/>
  <circle cx="22" cy="34" r="2" fill="#221100"/>
  <circle cx="30" cy="26" r="2" fill="#221100"/>
  <circle cx="34" cy="30" r="2" fill="#221100"/>
  <circle cx="42" cy="30" r="2" fill="#221100"/>
  <circle cx="46" cy="34" r="2" fill="#221100"/>
  <circle cx="26" cy="18" r="2" fill="#221100"/>
  <circle cx="30" cy="22" r="2" fill="#221100"/>
  <circle cx="38" cy="18" r="2" fill="#221100"/>
  <circle cx="42" cy="22" r="2" fill="#221100"/>
</svg>