<svg xmlns="http://www.w3.org/2000/svg" viewBox="0 0 640 400">
<rect width="640" height="400" fill="#0a0a10"/>
<rect x="160" y="0" width="320" height="300" fill="#151518"/>
<!-- Bookshelf -->
<rect x="20" y="40" width="120" height="240" fill="#1a1510" stroke="#2a2015" stroke-width="3"/>
<line x1="25" y1="120" x2="135" y2="120" stroke="#2a2015" stroke-width="2"/>
<line x1="25" y1="200" x2="135" y2="200" stroke="#2a2015" stroke-width="2"/>
<rect x="30" y="50" width="20" height="65" fill="#3a2020" rx="1"/>
<rect x="52" y="45" width="18" height="70" fill="#202030" rx="1"/>
<rect x="72" y="55" width="16" height="60" fill="#203020" rx="1"/>
<rect x="90" y="48" width="22" height="68" fill="#2a2030" rx="1"/>
<rect x="100" y="130" width="25" height="20" fill="#808080" stroke="#a0a0a0" stroke-width="1" rx="2"/>
<rect x="102" y="132" width="21" height="16" fill="#909090" rx="1"/>
<text x="112" y="144" text-anchor="middle" fill="#404040" font-size="6" font-family="monospace">POLISH</text>
<rect x="30" y="130" width="30" height="60" fill="#2a1a10" stroke="#1a0d05" stroke-width="1" rx="2"/>
<text x="45" y="160" text-anchor="middle" fill="#d0c0a0" font-size="5" font-family="serif">PATIENT</text>
<text x="45" y="167" text-anchor="middle" fill="#d0c0a0" font-size="5" font-family="serif">LEDGER</text>
<rect x="30" y="210" width="25" height="60" fill="#202020" rx="1"/>
<rect x="58" y="215" width="20" height="55" fill="#1a2020" rx="1"/>
<rect x="80" y="208" width="22" height="62" fill="#2a1a20" rx="1"/>
<!-- Desk -->
<rect x="200" y="220" width="240" height="120" fill="#1a1008" stroke="#2a1a08" stroke-width="3"/>
<rect x="205" y="215" width="230" height="10" fill="#251a0d" stroke="#2a1a08" stroke-width="2"/>
<rect x="200" y="240" width="110" height="40" fill="#150d05" stroke="#1a1008" stroke-width="2"/>
<rect x="205" y="235" width="100" height="8" fill="#251a0d"/>
<rect x="330" y="240" width="110" height="40" fill="#150d05" stroke="#1a1008" stroke-width="2"/>
<rect x="330" y="285" width="110" height="50" fill="#1a1008" stroke="#2a1a08" stroke-width="2"/>
<circle cx="385" cy="310" r="4" fill="#888840"/>
<!-- Scattered papers -->
<rect x="170" y="350" width="40" height="25" fill="#d0d0c0" rx="1" opacity="0.6"/>
<rect x="220" y="355" width="35" height="22" fill="#c8c0b0" rx="1" opacity="0.5"/>
<rect x="270" y="348" width="38" height="24" fill="#d0c8b8" rx="1" opacity="0.55"/>
<rect x="320" y="353" width="30" height="20" fill="#c0b8a8" rx="1" opacity="0.5"/>
<rect x="365" y="355" width="42" height="22" fill="#d0c8b8" rx="1" opacity="0.5"/>
<!-- Iron door -->
<rect x="480" y="180" width="140" height="200" fill="#151515" stroke="#2a2a2a" stroke-width="4"/>
<line x1="510" y1="180" x2="510" y2="380" stroke="#2a2a2a" stroke-width="3"/>
<line x1="550" y1="180" x2="550" y2="380" stroke="#2a2a2a" stroke-width="3"/>
<line x1="590" y1="180" x2="590" y2="380" stroke="#2a2a2a" stroke-width="3"/>
<circle cx="495" cy="280" r="6" fill="#404040" stroke="#303030" stroke-width="2"/>
<!-- Symbol panel -->
<rect x="625" y="240" width="12" height="60" fill="#202020" stroke="#303030" stroke-width="1"/>
<circle cx="631" cy="250" r="4" fill="#151515" stroke="#404040" stroke-width="1"/>
<circle cx="631" cy="262" r="4" fill="#151515" stroke="#404040" stroke-width="1"/>
<circle cx="631" cy="274" r="4" fill="#151515" stroke="#404040" stroke-width="1"/>
<circle cx="631" cy="286" r="4" fill="#151515" stroke="#404040" stroke-width="1"/>
<!-- Floor -->
<rect x="0" y="340" width="640" height="60" fill="#10100f"/>
<line x1="0" y1="355" x2="640" y2="355" stroke="#0a0a08" stroke-width="1"/>
<line x1="0" y1="370" x2="640" y2="370" stroke="#0a0a08" stroke-width="1"/>
<!-- Atmosphere -->
<rect x="20" y="130" width="30" height="60" fill="#006600" opacity="0.05" rx="2"/>
<ellipse cx="550" cy="360" rx="80" ry="15" fill="#151520" opacity="0.3"/>
</svg>