<svg xmlns="http://www.w3.org/2000/svg" viewBox="0 0 640 400">
<rect width="640" height="400" fill="#060610"/>
<rect x="120" y="20" width="400" height="300" fill="#151520" stroke="#606060" stroke-width="3"/>
<rect x="125" y="25" width="390" height="290" fill="#1a1a28" opacity="0.6"/>
<rect x="10" y="40" width="100" height="120" fill="#141418" stroke="#505050" stroke-width="2"/>
<rect x="10" y="170" width="100" height="120" fill="#141418" stroke="#505050" stroke-width="2"/>
<rect x="530" y="40" width="100" height="120" fill="#141418" stroke="#505050" stroke-width="2"/>
<rect x="530" y="170" width="100" height="120" fill="#141418" stroke="#505050" stroke-width="2"/>
<rect x="0" y="0" width="40" height="35" fill="#121218" stroke="#404040" stroke-width="2"/>
<rect x="600" y="0" width="40" height="35" fill="#121218" stroke="#404040" stroke-width="2"/>
<!-- Dr. Harrow -->
<rect x="295" y="80" width="20" height="80" fill="#2a2030" rx="3"/>
<circle cx="305" cy="72" r="12" fill="#3a3040"/>
<rect x="312" y="140" width="18" height="14" fill="#f0e8d0" stroke="#c0c0a0" stroke-width="0.5" rx="1"/>
<rect x="315" y="142" width="12" height="10" fill="#fff" opacity="0.3"/>
<!-- Reflected figures (left) -->
<g opacity="0.25">
<rect x="30" y="60" width="8" height="25" fill="#404050" rx="1"/><circle cx="34" cy="55" r="5" fill="#505060"/>
<rect x="55" y="65" width="8" height="25" fill="#3a3a4a" rx="1"/><circle cx="59" cy="60" r="5" fill="#4a4a5a"/>
<rect x="30" y="190" width="8" height="22" fill="#3a3a4a" rx="1"/><circle cx="34" cy="185" r="5" fill="#4a4a5a"/>
<rect x="55" y="195" width="8" height="20" fill="#404050" rx="1"/><circle cx="59" cy="190" r="4" fill="#505060"/>
</g>
<!-- Reflected figures (right) -->
<g opacity="0.25">
<rect x="550" y="65" width="8" height="25" fill="#404050" rx="1"/><circle cx="554" cy="60" r="5" fill="#505060"/>
<rect x="575" y="70" width="8" height="22" fill="#3a3a4a" rx="1"/><circle cx="579" cy="65" r="4" fill="#4a4a5a"/>
<rect x="550" y="200" width="8" height="20" fill="#3a3a4a" rx="1"/><circle cx="554" cy="195" r="4" fill="#4a4a5a"/>
<rect x="575" y="195" width="8" height="22" fill="#404050" rx="1"/><circle cx="579" cy="190" r="5" fill="#505060"/>
</g>
<!-- Central backup figures -->
<g opacity="0.15">
<rect x="250" y="90" width="10" height="30" fill="#3a3a4a" rx="1"/><circle cx="255" cy="85" r="6" fill="#4a4a5a"/>
<rect x="340" y="90" width="10" height="30" fill="#3a3a4a" rx="1"/><circle cx="345" cy="85" r="6" fill="#4a4a5a"/>
</g>
<!-- Player's face (47th) -->
<rect x="340" y="130" width="10" height="30" fill="#404060" rx="1" opacity="0.4"/>
<circle cx="345" cy="125" r="6" fill="#505070" opacity="0.4"/>
<!-- Door in mirror -->
<rect x="260" y="220" width="80" height="90" fill="#101018" stroke="#405040" stroke-width="2" opacity="0.5"/>
<circle cx="332" cy="265" r="4" fill="#404040" opacity="0.4"/>
<rect x="265" y="225" width="70" height="30" fill="#ffffcc" opacity="0.04"/>
<!-- Eye highlights -->
<circle cx="302" cy="70" r="2" fill="#fff" opacity="0.15"/>
<circle cx="308" cy="70" r="2" fill="#fff" opacity="0.15"/>
</svg>