<svg width="64" height="64" viewBox="0 0 64 64" xmlns="http://www.w3.org/2000/svg">
  <!-- Bell body -->
  <ellipse cx="32" cy="30" rx="18" ry="22" fill="#C0C0C0" stroke="#000000" stroke-width="2"/>
  
  <!-- Bell crown -->
  <rect x="28" y="10" width="8" height="12" fill="#C0C0C0" stroke="#000000" stroke-width="2"/>
  
  <!-- Bell loop -->
  <ellipse cx="32" cy="12" rx="6" ry="4" fill="#C0C0C0" stroke="#000000" stroke-width="2"/>
  
  <!-- Spiral symbol engraving -->
  <path d="M32,28 Q30,26 28,26 Q26,28 26,30 Q28,32 30,32 Q32,30 34,30 Q36,32 34,34 Q32,36 30,36" fill="none" stroke="#000000" stroke-width="1"/>
  
  <!-- Tarnish effect -->
  <path d="M20,20 Q25,15 30,20 Q35,25 30,30 Q25,35 20,30 Q15,25 20,20 Z" fill="#808080" opacity="0.3" stroke="#000000" stroke-width="1" stroke-dasharray="1,1"/>
  
  <!-- Sound wave (deep and mournful) -->
  <path d="M32,52 Q24,50 32,48" stroke="#FFFFFF" stroke-width="1" fill="none" opacity="0.5"/>
  <path d="M32,52 Q40,50 32,48" stroke="#FFFFFF" stroke-width="1" fill="none" opacity="0.5"/>
  
</svg>