<svg width="640" height="400" viewBox="0 0 640 400" xmlns="http://www.w3.org/2000/svg">
  <!-- Background: Dark stone chamber -->
  <rect width="640" height="400" fill="#000000"/>
  
  <!-- Stone walls -->
  <rect x="0" y="0" width="640" height="400" fill="#001100" stroke="#000000" stroke-width="2"/>
  
  <!-- Shelves with jars -->
  <rect x="50" y="50" width="120" height="300" fill="#8B4513" stroke="#000000" stroke-width="2"/>
  <rect x="470" y="50" width="120" height="300" fill="#8B4513" stroke="#000000" stroke-width="2"/>
  
  <!-- Shelf divisions -->
  <line x1="50" y1="150" x2="170" y2="150" stroke="#000000" stroke-width="1"/>
  <line x1="50" y1="250" x2="170" y2="250" stroke="#000000" stroke-width="1"/>
  <line x1="470" y1="150" x2="590" y2="150" stroke="#000000" stroke-width="1"/>
  <line x1="470" y1="250" x2="590" y2="250" stroke="#000000" stroke-width="1"/>
  
  <!-- Jars on shelves (representative samples) -->
  <rect x="70" y="70" width="20" height="30" fill="#8B4513" stroke="#000000" stroke-width="1"/>
  <rect x="100" y="70" width="20" height="30" fill="#8B4513" stroke="#000000" stroke-width="1"/>
  <rect x="70" y="120" width="20" height="30" fill="#8B4513" stroke="#000000" stroke-width="1"/>
  <rect x="100" y="120" width="20" height="30" fill="#8B4513" stroke="#000000" stroke-width="1"/>
  
  <rect x="490" y="70" width="20" height="30" fill="#8B4513" stroke="#000000" stroke-width="1"/>
  <rect x="520" y="70" width="20" height="30" fill="#8B4513" stroke="#000000" stroke-width="1"/>
  <rect x="490" y="120" width="20" height="30" fill="#8B4513" stroke="#000000" stroke-width="1"/>
  <rect x="520" y="120" width="20" height="30" fill="#8B4513" stroke="#000000" stroke-width="1"/>
  
  <!-- Shelf labels (dithered scribbles) -->
  <g opacity="0.6">
    <path d="M 72 90 L 88 90 M 75 92 L 85 92" stroke="#FFFFFF" stroke-width="0.5"/>
    <path d="M 102 90 L 118 90 M 105 92 L 115 92" stroke="#FFFFFF" stroke-width="0.5"/>
    <path d="M 72 140 L 88 140 M 75 142 L 85 142" stroke="#FFFFFF" stroke-width="0.5"/>
    <path d="M 102 140 L 118 140 M 105 142 L 115 142" stroke="#FFFFFF" stroke-width="0.5"/>
    
    <path d="M 492 90 L 508 90 M 495 92 L 505 92" stroke="#FFFFFF" stroke-width="0.5"/>
    <path d="M 522 90 L 538 90 M 525 92 L 535 92" stroke="#FFFFFF" stroke-width="0.5"/>
    <path d="M 492 140 L 508 140 M 495 142 L 505 142" stroke="#FFFFFF" stroke-width="0.5"/>
    <path d="M 522 140 L 538 140 M 525 142 L 535 142" stroke="#FFFFFF" stroke-width="0.5"/>
  </g>
  
  <!-- White salt circle -->
  <circle cx="320" cy="250" r="60" fill="#FFFFFF" stroke="#000000" stroke-width="2"/>
  
  <!-- Second, larger altar -->
  <rect x="280" y="200" width="80" height="20" fill="#8B4513" stroke="#000000" stroke-width="2"/>
  
  <!-- Stone pedestal -->
  <rect x="300" y="100" width="40" height="100" fill="#8B4513" stroke="#000000" stroke-width="2"/>
  
  <!-- Velvet cushion -->
  <rect x="305" y="180" width="30" height="10" fill="#8B0000" stroke="#000000" stroke-width="1"/>
  
  <!-- Final silver bell -->
  <ellipse cx="320" cy="160" rx="25" ry="15" fill="#C0C0C0" stroke="#000000" stroke-width="2"/>
  <rect x="310" y="160" width="20" height="8" fill="#C0C0C0" stroke="#000000" stroke-width="2"/>
  <rect x="313" y="152" width="14" height="8" fill="#C0C0C0" stroke="#000000" stroke-width="2"/>
  
  <!-- Light absorption effect around bell -->
  <circle cx="320" cy="160" r="35" fill="#000000" opacity="0.3" stroke="#FFFFFF" stroke-width="1" stroke-dasharray="2,2"/>
  
</svg>