<svg xmlns="http://www.w3.org/2000/svg" viewBox="0 0 640 400">
  <defs>
    <pattern id="stone-brick" width="60" height="30" patternUnits="userSpaceOnUse">
      <rect width="60" height="30" fill="#111111"/>
      <rect x="1" y="1" width="58" height="28" fill="#0a0a0a" stroke="#000" stroke-width="1"/>
      <rect x="30" y="15" width="28" height="13" fill="#0d0d0d" stroke="#000" stroke-width="0.5"/>
    </pattern>
  </defs>
  <!-- Layer 1: Background and walls -->
  <rect width="640" height="400" fill="#000000"/>
  <rect x="0" y="0" width="640" height="220" fill="url(#stone-brick)"/>
  <!-- Ceiling -->
  <rect x="0" y="0" width="640" height="15" fill="#0d0600" stroke="#000" stroke-width="2"/>
  <rect x="300" y="15" width="40" height="8" fill="#331a00" stroke="#000" stroke-width="1"/>
  <!-- Layer 2: Liquid time flood -->
  <rect x="0" y="220" width="640" height="180" fill="#000088"/>
  <rect x="0" y="220" width="640" height="180" fill="#0000FF" opacity="0.15"/>
  <!-- Surface line -->
  <line x1="0" y1="220" x2="640" y2="220" stroke="#0000FF" stroke-width="3" opacity="0.6"/>
  <path d="M 0 222 Q 80 218 160 222 Q 240 226 320 222 Q 400 218 480 222 Q 560 226 640 222" fill="none" stroke="#0000FF" stroke-width="2" opacity="0.4"/>
  <!-- Layer 3: Memory Jars -->
  <ellipse cx="80" cy="200" rx="12" ry="16" fill="#0000FF" opacity="0.25" stroke="#333" stroke-width="1.5"/>
  <circle cx="80" cy="200" r="5" fill="#33FF33" opacity="0.2"/>
  <circle cx="78" cy="198" r="2" fill="#FFFFFF" opacity="0.3"/>
  <ellipse cx="170" cy="230" rx="11" ry="15" fill="#0000FF" opacity="0.2" stroke="#333" stroke-width="1.5"/>
  <circle cx="170" cy="230" r="4" fill="#0000FF" opacity="0.25"/>
  <circle cx="168" cy="228" r="2" fill="#FFFFFF" opacity="0.25"/>
  <ellipse cx="280" cy="195" rx="13" ry="17" fill="#0000FF" opacity="0.22" stroke="#333" stroke-width="1.5"/>
  <circle cx="280" cy="195" r="6" fill="#AA00FF" opacity="0.15"/>
  <circle cx="278" cy="193" r="2" fill="#FFFFFF" opacity="0.3"/>
  <ellipse cx="370" cy="225" rx="11" ry="15" fill="#0000FF" opacity="0.2" stroke="#333" stroke-width="1.5"/>
  <circle cx="370" cy="225" r="4" fill="#33FF33" opacity="0.15"/>
  <ellipse cx="460" cy="210" rx="12" ry="16" fill="#0000FF" opacity="0.23" stroke="#333" stroke-width="1.5"/>
  <circle cx="460" cy="210" r="5" fill="#0000FF" opacity="0.2"/>
  <circle cx="458" cy="208" r="2" fill="#FFFFFF" opacity="0.25"/>
  <ellipse cx="560" cy="220" rx="11" ry="15" fill="#0000FF" opacity="0.22" stroke="#333" stroke-width="1.5"/>
  <circle cx="560" cy="220" r="4" fill="#AA00FF" opacity="0.12"/>
  <circle cx="558" cy="218" r="1.5" fill="#FFFFFF" opacity="0.2"/>
  <ellipse cx="120" cy="240" rx="10" ry="14" fill="#0000FF" opacity="0.18" stroke="#333" stroke-width="1"/>
  <circle cx="120" cy="240" r="3" fill="#33FF33" opacity="0.12"/>
  <ellipse cx="230" cy="245" rx="10" ry="14" fill="#0000FF" opacity="0.18" stroke="#333" stroke-width="1"/>
  <ellipse cx="430" cy="238" rx="10" ry="14" fill="#0000FF" opacity="0.18" stroke="#333" stroke-width="1"/>
  <ellipse cx="530" cy="242" rx="10" ry="14" fill="#0000FF" opacity="0.17" stroke="#333" stroke-width="1"/>
  <ellipse cx="60" cy="235" rx="9" ry="12" fill="#0000FF" opacity="0.15" stroke="#333" stroke-width="1"/>
  <ellipse cx="320" cy="248" rx="9" ry="12" fill="#0000FF" opacity="0.15" stroke="#333" stroke-width="1"/>
  <ellipse cx="500" cy="245" rx="9" ry="12" fill="#0000FF" opacity="0.15" stroke="#333" stroke-width="1"/>
  <!-- Layer 4: Submerged pedestal with keycard -->
  <rect x="480" y="280" width="40" height="8" fill="#222222" stroke="#444" stroke-width="2"/>
  <rect x="490" y="288" width="20" height="50" fill="#222222" stroke="#444" stroke-width="1.5"/>
  <rect x="480" y="335" width="40" height="8" fill="#222222" stroke="#444" stroke-width="2"/>
  <rect x="492" y="278" width="16" height="12" fill="#FF8800" stroke="#000" stroke-width="1.5" rx="1"/>
  <circle cx="497" cy="284" r="1.5" fill="#000000"/>
  <circle cx="502" cy="284" r="1.5" fill="#000000"/>
  <circle cx="497" cy="287" r="1.5" fill="#000000"/>
  <rect x="491" y="277" width="18" height="14" fill="#FF8800" opacity="0.1"/>
  <rect x="482" y="220" width="36" height="3" fill="#0000FF" opacity="0.15"/>
  <!-- Layer 5: Cellar Door (north/back wall) -->
  <rect x="270" y="80" width="100" height="140" fill="#1a0d00" stroke="#FF8800" stroke-width="3"/>
  <rect x="275" y="85" width="90" height="130" fill="#0d0600"/>
  <rect x="316" y="80" width="8" height="140" fill="#FF8800" opacity="0.4"/>
  <rect x="270" y="146" width="100" height="8" fill="#FF8800" opacity="0.3"/>
  <rect x="328" y="160" width="24" height="6" fill="#000000" stroke="#FF8800" stroke-width="1.5" rx="1"/>
  <!-- Layer 6: Bubbles -->
  <circle cx="100" cy="260" r="3" fill="#0000FF" opacity="0.3"/>
  <circle cx="110" cy="240" r="2" fill="#0000FF" opacity="0.2"/>
  <circle cx="350" cy="270" r="2.5" fill="#0000FF" opacity="0.25"/>
  <circle cx="355" cy="250" r="1.5" fill="#0000FF" opacity="0.15"/>
  <circle cx="200" cy="265" r="2" fill="#0000FF" opacity="0.2"/>
  <circle cx="450" cy="275" r="2" fill="#0000FF" opacity="0.22"/>
  <circle cx="550" cy="260" r="2" fill="#0000FF" opacity="0.18"/>
  <!-- Layer 7: Ambient copper glow -->
  <rect x="0" y="180" width="640" height="40" fill="#FF8800" opacity="0.02"/>
  <rect x="0" y="370" width="640" height="30" fill="#000000" opacity="0.4"/>
</svg>
