<svg xmlns="http://www.w3.org/2000/svg" viewBox="0 0 64 64">
  <!-- Base Handle -->
  <path d="M 24 56 L 40 56 L 40 52 L 24 52 Z" fill="#330028" stroke="#4A0035" stroke-width="2"/>
  <path d="M 28 52 L 36 52 L 36 24 L 28 24 Z" fill="#330028" stroke="#4A0035" stroke-width="2"/>
  <!-- Light Bulb (Ghost Light) -->
  <path d="M 32 8 C 26 8 22 12 22 18 C 22 22 24 24 28 28 L 36 28 C 40 24 42 22 42 18 C 42 12 38 8 32 8 Z" fill="#FFFF00"/>
  <!-- Light Glow Outer -->
  <circle cx="32" cy="18" r="12" fill="none" stroke="#FFFF00" stroke-width="2" opacity="0.3"/>
  <!-- Light Glow Inner -->
  <circle cx="32" cy="18" r="6" fill="#FFFFFF" opacity="0.8"/>
  <!-- Wire Cage -->
  <path d="M 22 18 C 22 12 26 8 32 8 C 38 8 42 12 42 18 M 22 18 L 42 18 M 32 8 L 32 28 M 26 10 L 38 26 M 38 10 L 26 26" fill="none" stroke="#4A0035" stroke-width="1.5"/>
</svg>