<svg xmlns="http://www.w3.org/2000/svg" viewBox="0 0 64 64">
  <!-- Key Bow (Ornate) -->
  <path d="M 32 8 C 24 8 18 14 18 22 C 18 28 22 33 28 35 L 28 52 L 32 56 L 36 52 L 36 35 C 42 33 46 28 46 22 C 46 14 40 8 32 8 Z M 32 14 C 36 14 39 17 39 22 C 39 27 36 30 32 30 C 28 30 25 27 25 22 C 25 17 28 14 32 14 Z" fill="#FF8800" stroke="#000000" stroke-width="1"/>
  <!-- Key Teeth -->
  <path d="M 36 40 L 42 40 L 42 44 L 36 44" fill="#FF8800" stroke="#000000" stroke-width="1"/>
  <path d="M 36 46 L 40 46 L 40 50 L 36 50" fill="#FF8800" stroke="#000000" stroke-width="1"/>
  <!-- Highlight -->
  <path d="M 30 14 C 28 14 27 16 27 18" fill="none" stroke="#FFFFFF" stroke-width="1" opacity="0.5"/>
</svg>